Patient4_TMGait_0pt2_02_left_13_EMG.mot
version=1
nRows=13
nColumns=33
inDegrees=no
endheader
time	1LAddLong	2LGlutMax	3LGlutMed	4LIliopsoas	5LSemiMemb	6LBicFemLong	7LRecFem	8LVastMed	9LVastLat	10LGasMed	11LTibAnt	12lTibPost	13LPeroneusLong	14LSol	15LExtDigLong	16LFlexDigLong	17RAddLong	18RGlutMax	19RGlutMed	20RIliopsoas	21RSemiMemb	22RBicFemLong	23RRecFem	24RVastMed	25RVastLat	26RGasMed	27RTibAnt	28RTibPost	29RPeroneusLong	30RSol	31RExtDigLong	32RFlexDigLong
29.75	0.004578	0.17014	-0.25482	0.013885	-0.002136	-0.03067	0.03067	0.003052	0.056458	0.018921	-0.062103	0.022888	0.006256	-0.065002	0.077209	-0.032654	0.034943	0.12436	0.07782	0.074768	-0.097046	0.18188	0.23895	-0.13382	0.15961	0.006104	0.030975	0.083466	0.7991	0.009155	0.003357	-0.015564
29.751	0.012207	0.12436	-0.29068	-0.000916	-0.006256	-0.022736	0.037079	0.002747	0.053253	0.038452	-0.012817	0.018311	-0.005493	-0.031128	0.07431	-0.074463	0.035248	0.07843	0.068665	0.001373	0.19363	0.15488	0.20554	0.094299	-0.077667	0.032806	-0.082703	0.014954	0.88638	-0.13214	-0.002441	-0.016022
29.752	0.009613	0.097198	-0.32654	0.018005	-0.007172	-0.031738	0.052643	0.00351	0.050659	-0.000153	-0.029755	-0.000153	0.040894	-0.038605	0.098877	-0.098572	0.045471	0.019073	-0.022583	-0.18646	0.095825	0.073242	0.17716	-0.11444	-0.29098	0.009766	-0.08194	-0.009918	1.5526	-0.13534	-0.00061	-0.019836
29.753	0.007935	0.085754	-0.31708	-0.004578	-0.007477	-0.038757	0.081024	0.005035	0.059052	0.036163	0.090637	0.001373	0.000305	-0.045319	0.23697	-0.13565	0.031738	0.023804	-0.17425	-0.13977	0.17425	-0.053711	0.10529	-0.36987	-0.33936	0.000458	-0.12665	-0.011444	0.952	-0.18341	-0.00351	-0.007935
29.754	-0.005493	0.06958	-0.31433	-0.007477	-0.003357	-0.037384	0.096588	0.005646	0.05722	0.04776	0.15427	-0.055847	-0.041809	-0.018921	0.19348	-0.16785	0.007935	0.030518	-0.13809	-0.043793	0.16953	-0.1268	-0.056915	-0.41885	-0.25589	0.016327	-0.13123	-0.010834	-0.27908	-0.10254	-0.00412	-0.007629
29.755	0.005951	0.049896	-0.31036	0.01709	-0.00351	-0.06485	0.095367	0.000763	0.056	0.045929	0.18066	0.007782	-0.055389	0.010223	0.44983	-0.17853	0.026398	0.001068	-0.20355	0.016632	-0.046234	-0.1648	-0.17029	-0.27756	-0.32044	0.00473	-0.06897	-0.01358	-0.32547	0.057526	-0.006561	-0.006256
29.756	0.011444	0.059357	-0.33325	0.004883	-0.00473	-0.044708	0.0914	0.004578	0.055542	0.013275	-0.10773	0.027161	0.015259	0.04837	0.2301	-0.19745	0.00412	-0.003815	-0.15915	0.16068	-0.053864	-0.18677	0.041809	-0.16174	-0.36499	-0.024414	-0.062561	-0.016174	0.054474	0.080261	-0.004578	-0.004883
29.757	0.00824	0.06897	-0.32364	-0.029907	-0.002594	-0.032959	0.084839	-0.000153	0.052185	-0.023956	-0.091095	0.018463	0.080719	0.054321	0.41763	-0.19928	-0.004883	-0.085754	-0.21683	0.15503	-0.057678	-0.12909	0.21332	-0.033722	-0.24078	-0.045624	0.044861	-0.023956	-0.49377	0.13825	0.003052	-0.00061
29.758	0.001831	0.048828	-0.32471	-0.02182	-0.003357	-0.022583	0.094452	0.005798	0.048218	-0.046387	-0.11017	0.022125	0.065765	0.10864	-0.011749	-0.2034	0.008392	-0.17548	-0.41412	0.10819	0.014496	-0.068207	0.30182	-0.15182	-0.033875	-0.054779	0.071564	-0.032959	0.091553	0.20813	-0.002289	-0.000305
29.759	0.003815	0.038452	-0.38711	-0.00946	-0.010376	-0.027618	0.089722	0.003815	0.041199	-0.042725	-0.094299	0.010986	0.041656	0.1445	0.17883	-0.19745	0.016479	-0.23987	-0.15991	0.020142	-0.084229	-0.11993	0.26245	-0.37872	0.066681	-0.014343	0.021362	-0.036163	0.46753	0.032654	-0.002136	-0.005188
29.76	-0.007782	0.024719	-0.39551	0.002594	-0.000458	-0.032043	0.07843	-0.003662	0.030823	0.028229	-0.032043	0.01297	-0.052643	0.090027	-0.41687	-0.1976	-0.009918	-0.18234	0.17502	-0.034332	-0.21881	-0.15305	0.19516	-0.45868	0.24628	0.032959	-0.030823	0.075073	-0.028229	-0.063934	-0.002747	-0.009155
29.761	-0.00061	0.006256	-0.35553	0.006714	-0.007172	-0.030365	0.05661	0.001984	0.032654	0.049133	0.12116	0.019531	-0.082092	0.12878	-0.52994	-0.19898	-0.039215	-0.13596	-0.14816	-0.023651	-0.38544	-0.10712	0.19409	-0.42221	0.73257	-0.003662	-0.11261	0.014191	-0.66513	-0.19134	-0.001678	-0.009308
29.762	0.014038	-0.008087	-0.37018	0.023346	-0.005493	-0.025177	0.05188	0.000458	0.025787	0.027313	0.41885	0.008392	-0.096588	0.14191	-0.011597	-0.15793	-0.036774	-0.11551	-0.25253	0.020447	0.12009	-0.030212	0.19547	-0.34195	0.61676	0.032806	-0.050354	-0.027618	-0.91629	-0.16159	-0.00351	-0.00824
